<mxfile host="app.diagrams.net" modified="2020-12-08T13:29:37.148Z" agent="5.0 (X11; Linux x86_64) AppleWebKit/537.36 (KHTML, like Gecko) Chrome/87.0.4280.66 Safari/537.36" etag="PFB-MfIqdhkTtL6MoE-H" version="13.10.6" type="github">
  <diagram id="C5RBs43oDa-KdzZeNtuy" name="Page-1">
    <mxGraphModel dx="980" dy="584" grid="1" gridSize="10" guides="1" tooltips="1" connect="1" arrows="1" fold="1" page="1" pageScale="1" pageWidth="827" pageHeight="1169" math="0" shadow="0">
      <root>
        <mxCell id="WIyWlLk6GJQsqaUBKTNV-0" />
        <mxCell id="WIyWlLk6GJQsqaUBKTNV-1" parent="WIyWlLk6GJQsqaUBKTNV-0" />
        <mxCell id="43maOflkA4y-aPjfewAK-6" style="edgeStyle=orthogonalEdgeStyle;rounded=0;orthogonalLoop=1;jettySize=auto;html=1;exitX=0.5;exitY=1;exitDx=0;exitDy=0;exitPerimeter=0;dashed=1;startArrow=none;startFill=0;endArrow=classic;endFill=1;" edge="1" parent="WIyWlLk6GJQsqaUBKTNV-1" source="43maOflkA4y-aPjfewAK-0" target="43maOflkA4y-aPjfewAK-1">
          <mxGeometry relative="1" as="geometry" />
        </mxCell>
        <mxCell id="43maOflkA4y-aPjfewAK-0" value="snakegame.ui" style="shape=folder;fontStyle=1;tabWidth=80;tabHeight=30;tabPosition=left;html=1;boundedLbl=1;" vertex="1" parent="WIyWlLk6GJQsqaUBKTNV-1">
          <mxGeometry x="340" y="260" width="150" height="80" as="geometry" />
        </mxCell>
        <mxCell id="43maOflkA4y-aPjfewAK-10" style="edgeStyle=orthogonalEdgeStyle;rounded=0;orthogonalLoop=1;jettySize=auto;html=1;exitX=0.5;exitY=1;exitDx=0;exitDy=0;exitPerimeter=0;entryX=0.491;entryY=-0.003;entryDx=0;entryDy=0;entryPerimeter=0;dashed=1;startArrow=none;startFill=0;endArrow=classic;endFill=1;" edge="1" parent="WIyWlLk6GJQsqaUBKTNV-1" source="43maOflkA4y-aPjfewAK-1" target="43maOflkA4y-aPjfewAK-2">
          <mxGeometry relative="1" as="geometry" />
        </mxCell>
        <mxCell id="43maOflkA4y-aPjfewAK-1" value="snakegame.domain" style="shape=folder;fontStyle=1;tabWidth=80;tabHeight=30;tabPosition=left;html=1;boundedLbl=1;" vertex="1" parent="WIyWlLk6GJQsqaUBKTNV-1">
          <mxGeometry x="340" y="380" width="150" height="80" as="geometry" />
        </mxCell>
        <mxCell id="43maOflkA4y-aPjfewAK-2" value="snakegame.dao" style="shape=folder;fontStyle=1;tabWidth=80;tabHeight=30;tabPosition=left;html=1;boundedLbl=1;" vertex="1" parent="WIyWlLk6GJQsqaUBKTNV-1">
          <mxGeometry x="340" y="510" width="150" height="80" as="geometry" />
        </mxCell>
        <mxCell id="43maOflkA4y-aPjfewAK-7" style="edgeStyle=orthogonalEdgeStyle;rounded=0;orthogonalLoop=1;jettySize=auto;html=1;exitX=0.5;exitY=1;exitDx=0;exitDy=0;exitPerimeter=0;dashed=1;startArrow=none;startFill=0;endArrow=classic;endFill=1;" edge="1" parent="WIyWlLk6GJQsqaUBKTNV-1" source="43maOflkA4y-aPjfewAK-1" target="43maOflkA4y-aPjfewAK-1">
          <mxGeometry relative="1" as="geometry" />
        </mxCell>
      </root>
    </mxGraphModel>
  </diagram>
</mxfile>
